<?xml version="1.0" standalone="no"?>
<!DOCTYPE svg PUBLIC "-//W3C//DTD SVG 20010904//EN"
 "http://www.w3.org/TR/2001/REC-SVG-20010904/DTD/svg10.dtd">
<svg version="1.0" xmlns="http://www.w3.org/2000/svg"
 width="120.000000pt" height="120.000000pt" viewBox="0 0 120.000000 120.000000"
 preserveAspectRatio="xMidYMid meet">
<metadata>
Created by potrace 1.11, written by Peter Selinger 2001-2013
</metadata>
<g transform="translate(0.000000,120.000000) scale(0.100000,-0.100000)"
fill="#000000" stroke="none">
<path d="M231 986 c-66 -22 -74 -46 -73 -215 0 -158 4 -175 52 -208 12 -8 50
-17 88 -19 37 -2 70 -3 75 -4 4 0 7 -37 7 -82 l0 -83 83 82 82 82 76 5 c82 4
103 12 134 46 18 19 20 39 23 159 4 154 -6 196 -54 228 -25 16 -53 18 -244 19
-138 1 -227 -2 -249 -10z"/>
<path d="M890 707 c0 -86 -23 -156 -64 -199 -45 -46 -88 -65 -166 -73 -60 -7
-69 -11 -112 -53 -57 -55 -52 -62 47 -62 l70 0 82 -82 c74 -73 83 -80 84 -58
0 14 1 50 2 80 l2 55 75 5 c82 6 120 24 138 66 7 15 12 80 12 162 0 119 -3
141 -20 170 -23 37 -54 52 -111 52 l-39 0 0 -63z"/>
</g>
</svg>
